<?xml version="1.0" standalone="no"?>
<!DOCTYPE svg PUBLIC "-//W3C//DTD SVG 20010904//EN"
 "http://www.w3.org/TR/2001/REC-SVG-20010904/DTD/svg10.dtd">
<svg version="1.0" xmlns="http://www.w3.org/2000/svg"
 width="1280.000000pt" height="1280.000000pt" viewBox="0 0 1280.000000 1280.000000"
 preserveAspectRatio="xMidYMid meet">
<metadata>
Created by potrace 1.15, written by Peter Selinger 2001-2017
</metadata>
<g transform="translate(0.000000,1280.000000) scale(0.100000,-0.100000)"
fill="#000000" stroke="none">
<path d="M5350 12524 c-206 -38 -291 -65 -430 -134 -233 -117 -420 -302 -535
-530 -70 -141 -19 45 -520 -1905 -130 -506 -281 -1093 -335 -1305 -54 -212
-205 -799 -335 -1305 -130 -506 -276 -1075 -325 -1265 -49 -190 -200 -777
-335 -1305 -136 -528 -304 -1185 -375 -1460 -150 -587 -148 -577 -156 -704
-31 -471 255 -949 703 -1175 125 -62 194 -83 753 -227 722 -186 1200 -308
1865 -479 303 -78 714 -183 915 -235 889 -229 872 -225 1053 -225 526 1 994
310 1171 774 20 50 119 417 221 816 102 399 231 898 285 1110 54 212 162 633
240 935 78 303 186 723 240 935 55 212 203 790 330 1285 373 1451 505 1966
755 2940 130 506 243 958 251 1005 97 587 -283 1180 -881 1373 -44 15 -433
117 -865 227 -757 194 -1037 266 -2495 641 -893 229 -802 210 -1000 214 -93 2
-181 2 -195 -1z m2112 -1219 c376 -97 764 -197 863 -222 198 -50 223 -60 254
-99 46 -59 8 -144 -70 -159 -27 -5 -237 46 -912 219 -483 124 -888 233 -901
241 -23 16 -56 71 -56 95 0 46 62 99 117 100 12 0 330 -79 705 -175z m-2127
-8960 c194 -41 352 -178 425 -370 31 -82 39 -235 16 -325 -28 -111 -72 -187
-155 -271 -125 -125 -257 -175 -436 -167 -256 13 -461 182 -525 434 -105 408
260 786 675 699z"/>
</g>
</svg>
